<svg width="49" height="32" viewBox="0 0 49 32" fill="none" xmlns="http://www.w3.org/2000/svg">
<g clip-path="url(#clip0_2_61)">
<g clip-path="url(#clip1_2_61)">
<g clip-path="url(#clip2_2_61)">
<path d="M45.1 0.799805H9.48497C7.77597 0.799805 6.38997 2.2308 6.38997 3.9998V23.1998C6.38997 24.9658 7.77697 26.3998 9.48697 26.3998H45.1C46.81 26.3998 48.197 24.9658 48.197 23.1998V3.9998C48.197 2.2318 46.81 0.799805 45.1 0.799805Z" fill="#DFF1FF"/>
<path d="M1.74397 10.3999H43.551V15.1999H1.74397V10.3999Z" fill="#006BFF"/>
<path d="M43.55 8.8001V10.4001H1.74497V8.8001C1.74497 7.9511 2.07097 7.1371 2.65197 6.5371C2.93544 6.24194 3.27543 6.00686 3.65168 5.84588C4.02793 5.6849 4.43273 5.60132 4.84197 5.6001H40.455C41.276 5.6001 42.064 5.9371 42.645 6.5371C43.225 7.1371 43.552 7.9511 43.552 8.8001H43.55ZM1.74397 15.2001H43.551V28.0001C43.551 28.8491 43.224 29.6631 42.644 30.2631C42.063 30.8631 41.275 31.2001 40.454 31.2001H4.83997C4.43072 31.199 4.02588 31.1155 3.64961 30.9545C3.27335 30.7935 2.93337 30.5583 2.64997 30.2631C2.06626 29.6546 1.74146 28.8433 1.74397 28.0001V15.2001Z" fill="#DFF1FF"/>
<path d="M4.84097 18.3999H20.325V21.5999H4.83997V18.3999H4.84097ZM4.84097 28.7999H11.809C11.9112 28.7996 12.0123 28.7787 12.1062 28.7385C12.2002 28.6983 12.2851 28.6396 12.356 28.5659C12.5021 28.4138 12.5835 28.2109 12.583 27.9999C12.5835 27.7889 12.5021 27.586 12.356 27.4339C12.2852 27.3602 12.2003 27.3014 12.1063 27.2612C12.0123 27.221 11.9112 27.2002 11.809 27.1999H4.83997C4.73775 27.2002 4.63663 27.221 4.54265 27.2612C4.44867 27.3014 4.36375 27.3602 4.29297 27.4339C4.14682 27.586 4.06543 27.7889 4.06597 27.9999C4.06597 28.2119 4.14697 28.4159 4.29297 28.5659C4.36372 28.6397 4.44863 28.6984 4.54262 28.7387C4.63661 28.7789 4.73774 28.7997 4.83997 28.7999H4.84097ZM14.905 27.1999H14.131C14.0287 27.2002 13.9276 27.221 13.8337 27.2612C13.7397 27.3014 13.6548 27.3602 13.584 27.4339C13.4378 27.586 13.3564 27.7889 13.357 27.9999C13.357 28.2119 13.439 28.4159 13.584 28.5659C13.6547 28.6397 13.7396 28.6984 13.8336 28.7387C13.9276 28.7789 14.0287 28.7997 14.131 28.7999H14.905C15.0073 28.7997 15.1086 28.7789 15.2028 28.7387C15.2969 28.6985 15.382 28.6397 15.453 28.5659C15.5991 28.4138 15.6805 28.2109 15.68 27.9999C15.6805 27.7889 15.5991 27.586 15.453 27.4339C15.3821 27.36 15.297 27.3012 15.2028 27.261C15.1087 27.2208 15.0074 27.2 14.905 27.1999Z" fill="#006BFF"/>
<path d="M4.84097 22.4001H20.325C20.4272 22.3998 20.5283 22.379 20.6223 22.3388C20.7163 22.2986 20.8012 22.2398 20.872 22.1661C21.0181 22.014 21.0995 21.8111 21.099 21.6001V18.4001C21.0995 18.1891 21.0181 17.9862 20.872 17.8341C20.8011 17.7604 20.7162 17.7017 20.6222 17.6615C20.5283 17.6213 20.4272 17.6004 20.325 17.6001H4.83997C4.73776 17.6004 4.63666 17.6213 4.54269 17.6615C4.44871 17.7017 4.36379 17.7604 4.29297 17.8341C4.14682 17.9862 4.06543 18.1891 4.06597 18.4001V21.6001C4.06597 21.8121 4.14697 22.0161 4.29297 22.1661C4.36372 22.2399 4.44863 22.2986 4.54262 22.3388C4.63661 22.3791 4.73774 22.3999 4.83997 22.4001H4.84097ZM5.61497 19.2001H19.551V20.8001H5.61497V19.2001Z" fill="#006BFF"/>
<path d="M45.099 0H9.48598C8.97457 0.00204912 8.46881 0.106953 7.99878 0.308468C7.52874 0.509984 7.10405 0.803993 6.74998 1.173C6.02022 1.93305 5.6134 2.94633 5.61498 4V4.8H4.84098C4.32957 4.80205 3.82381 4.90695 3.35378 5.10847C2.88374 5.30998 2.45905 5.60399 2.10498 5.973C1.37522 6.73305 0.968399 7.74633 0.969975 8.8V28C0.968399 29.0537 1.37522 30.0669 2.10498 30.827C2.45905 31.196 2.88374 31.49 3.35378 31.6915C3.82381 31.893 4.32957 31.998 4.84098 32H40.454C40.9654 31.998 41.4711 31.893 41.9412 31.6915C42.4112 31.49 42.8359 31.196 43.19 30.827C43.9197 30.0669 44.3265 29.0537 44.325 28V27.2H45.099C45.6104 27.198 46.1161 27.093 46.5862 26.8915C47.0562 26.69 47.4809 26.396 47.835 26.027C48.5647 25.267 48.9715 24.2537 48.97 23.2V4C48.9715 2.94633 48.5647 1.93305 47.835 1.173C47.4809 0.803993 47.0562 0.509984 46.5862 0.308468C46.1161 0.106953 45.6104 0.00204912 45.099 0ZM2.51898 8.8C2.51898 8.164 2.76398 7.554 3.19898 7.104C3.41146 6.88252 3.66633 6.70606 3.94842 6.58511C4.23051 6.46417 4.53405 6.40121 4.84098 6.4H40.454C41.07 6.4 41.66 6.654 42.095 7.104C42.531 7.554 42.775 8.164 42.776 8.8V9.6H2.51798V8.8H2.51898ZM2.51898 11.2H42.776V14.4H2.51798V11.2H2.51898ZM42.775 28C42.775 28.636 42.53 29.246 42.095 29.696C41.8825 29.9175 41.6276 30.0939 41.3455 30.2149C41.0634 30.3358 40.7599 30.3988 40.453 30.4H4.83998C4.53305 30.3988 4.22951 30.3358 3.94742 30.2149C3.66533 30.0939 3.41046 29.9175 3.19798 29.696C2.76128 29.2395 2.5183 28.6317 2.51998 28V16H42.777V28H42.775ZM47.421 23.2C47.4215 23.8321 47.1775 24.4398 46.74 24.896C46.5275 25.1175 46.2726 25.2939 45.9905 25.4149C45.7084 25.5358 45.4049 25.5988 45.098 25.6H44.324V8.8C44.3256 7.74633 43.9187 6.73305 43.189 5.973C42.835 5.60411 42.4105 5.31017 41.9406 5.10866C41.4708 4.90715 40.9652 4.80218 40.454 4.8H7.16398V4C7.16398 3.364 7.40898 2.754 7.84398 2.304C8.05658 2.0824 8.31161 1.90586 8.59388 1.78492C8.87615 1.66397 9.17988 1.60108 9.48698 1.6H45.1C45.716 1.6 46.306 1.854 46.742 2.304C47.177 2.754 47.422 3.364 47.422 4L47.421 23.2Z" fill="#006BFF"/>
</g>
</g>
</g>
<defs>
<clipPath id="clip0_2_61">
<rect width="48" height="32" fill="white" transform="translate(0.969971)"/>
</clipPath>
<clipPath id="clip1_2_61">
<rect width="48" height="32" fill="white" transform="translate(0.969971)"/>
</clipPath>
<clipPath id="clip2_2_61">
<rect width="48" height="32" fill="white" transform="translate(0.969971)"/>
</clipPath>
</defs>
</svg>
